<?xml version="1.0" ?><!DOCTYPE svg  PUBLIC '-//W3C//DTD SVG 1.1//EN'  'http://www.w3.org/Graphics/SVG/1.1/DTD/svg11.dtd'><svg enable-background="new 0 0 512 512" height="512px" id="Calque_1" version="1.1" viewBox="0 0 512 512" width="512px" xml:space="preserve" xmlns="http://www.w3.org/2000/svg" xmlns:xlink="http://www.w3.org/1999/xlink"><g><g><g id="XMLID_1_"><g><path d="M448.7,245.79c5.43,0,9.84,4.4,9.84,9.84s-4.41,9.85-9.84,9.85h-87.05c-5.44,0-9.85-4.41-9.85-9.85      c0-2.72,1.1-5.18,2.88-6.96c1.79-1.78,4.25-2.88,6.97-2.88h43.52H448.7z" fill="#FFC035"/><path d="M448.7,265.48c5.43,0,9.84,4.4,9.84,9.84s-4.41,9.85-9.84,9.85h-87.05c-5.44,0-9.85-4.41-9.85-9.85      c0-2.72,1.1-5.18,2.88-6.96c1.79-1.78,4.25-2.88,6.97-2.88H448.7z" fill="#FFC035"/><path d="M448.7,304.86c5.43,0,9.84,4.4,9.84,9.84s-4.41,9.85-9.84,9.85h-87.05c-5.44,0-9.85-4.41-9.85-9.85      c0-2.72,1.1-5.18,2.88-6.96c1.79-1.78,4.25-2.88,6.97-2.88H448.7z" fill="#FFC035"/><path d="M448.7,285.17c5.43,0,9.84,4.4,9.84,9.84s-4.41,9.85-9.84,9.85h-87.05c-5.44,0-9.85-4.41-9.85-9.85      c0-2.72,1.1-5.18,2.88-6.96c1.79-1.78,4.25-2.88,6.97-2.88H448.7z" fill="#FFC035"/><path d="M448.7,324.55c5.43,0,9.84,4.4,9.84,9.84c0,5.44-4.41,9.85-9.84,9.85h-87.05      c-5.44,0-9.85-4.41-9.85-9.85c0-2.72,1.1-5.18,2.88-6.96c1.79-1.78,4.25-2.88,6.97-2.88H448.7z" fill="#FFC035"/><path d="M448.7,363.93c5.43,0,9.84,4.4,9.84,9.84c0,5.35-4.27,9.71-9.58,9.85c-0.09-0.01-0.17-0.01-0.26-0.01      h-87.05c-0.08,0-0.17,0-0.25,0.01c-5.32-0.14-9.6-4.49-9.6-9.85c0-2.72,1.1-5.18,2.88-6.96c1.79-1.78,4.25-2.88,6.97-2.88H448.7      z" fill="#FFC035"/><path d="M448.7,344.24c5.43,0,9.84,4.4,9.84,9.84c0,5.44-4.41,9.85-9.84,9.85h-87.05      c-5.44,0-9.85-4.41-9.85-9.85c0-2.72,1.1-5.18,2.88-6.96c1.79-1.78,4.25-2.88,6.97-2.88H448.7z" fill="#FFC035"/><path d="M448.96,383.62c5.31,0.13,9.58,4.49,9.58,9.84s-4.27,9.71-9.58,9.85c-0.09-0.01-0.17-0.01-0.26-0.01      h-87.05c-0.08,0-0.17,0-0.25,0.01c-5.32-0.14-9.6-4.49-9.6-9.85c0-2.72,1.1-5.18,2.88-6.96c1.74-1.74,4.1-2.82,6.72-2.88      c0.08,0,0.17,0,0.25,0h87.05C448.79,383.62,448.87,383.62,448.96,383.62z" fill="#FFC035"/><path d="M448.96,403.31c5.31,0.14,9.58,4.49,9.58,9.84c0,5.44-4.41,9.84-9.84,9.84h-87.05      c-5.44,0-9.85-4.4-9.85-9.84c0-2.72,1.1-5.18,2.88-6.97c1.74-1.73,4.1-2.81,6.72-2.87c0.08,0,0.17,0,0.25,0h87.05      C448.79,403.31,448.87,403.31,448.96,403.31z" fill="#FFC035"/><path d="M448.7,422.99c5.43,0,9.84,4.41,9.84,9.85s-4.41,9.85-9.84,9.85h-87.05c-5.44,0-9.85-4.41-9.85-9.85      c0-2.72,1.1-5.18,2.88-6.96c1.79-1.79,4.25-2.89,6.97-2.89H448.7z" fill="#FFC035"/><path d="M458.54,432.84c0,5.44-4.41,9.85-9.84,9.85h-87.05c-5.44,0-9.85-4.41-9.85-9.85      c0-1.06,0.17-2.09,0.48-3.05c1.29,3.95,4.99,6.8,9.37,6.8h87.05c4.37,0,8.08-2.85,9.36-6.8      C458.37,430.75,458.54,431.78,458.54,432.84z" opacity="0.2"/><path d="M458.54,413.14c0,5.44-4.41,9.85-9.84,9.85h-87.05c-5.44,0-9.85-4.41-9.85-9.85      c0-1.06,0.17-2.09,0.48-3.05c1.29,3.95,4.99,6.8,9.37,6.8h87.05c4.37,0,8.08-2.85,9.36-6.8      C458.37,411.05,458.54,412.08,458.54,413.14z" opacity="0.2"/><path d="M458.54,393.44c0,5.44-4.41,9.85-9.84,9.85h-87.05c-5.44,0-9.85-4.41-9.85-9.85      c0-1.06,0.17-2.09,0.48-3.05c1.29,3.95,4.99,6.8,9.37,6.8h87.05c4.37,0,8.08-2.85,9.36-6.8      C458.37,391.35,458.54,392.38,458.54,393.44z" opacity="0.2"/><path d="M458.54,373.74c0,5.44-4.41,9.85-9.84,9.85h-87.05c-5.44,0-9.85-4.41-9.85-9.85      c0-1.06,0.17-2.09,0.48-3.05c1.29,3.95,4.99,6.8,9.37,6.8h87.05c4.37,0,8.08-2.85,9.36-6.8      C458.37,371.65,458.54,372.68,458.54,373.74z" opacity="0.2"/><path d="M458.54,354.04c0,5.44-4.41,9.85-9.84,9.85h-87.05c-5.44,0-9.85-4.41-9.85-9.85      c0-1.06,0.17-2.09,0.48-3.05c1.29,3.95,4.99,6.8,9.37,6.8h87.05c4.37,0,8.08-2.85,9.36-6.8      C458.37,351.95,458.54,352.98,458.54,354.04z" opacity="0.2"/><path d="M458.54,334.34c0,5.44-4.41,9.85-9.84,9.85h-87.05c-5.44,0-9.85-4.41-9.85-9.85      c0-1.06,0.17-2.09,0.48-3.05c1.29,3.95,4.99,6.8,9.37,6.8h87.05c4.37,0,8.08-2.85,9.36-6.8      C458.37,332.25,458.54,333.28,458.54,334.34z" opacity="0.2"/><path d="M458.54,314.64c0,5.44-4.41,9.85-9.84,9.85h-87.05c-5.44,0-9.85-4.41-9.85-9.85      c0-1.06,0.17-2.09,0.48-3.05c1.29,3.95,4.99,6.8,9.37,6.8h87.05c4.37,0,8.08-2.85,9.36-6.8      C458.37,312.55,458.54,313.58,458.54,314.64z" opacity="0.2"/><path d="M458.54,294.94c0,5.44-4.41,9.85-9.84,9.85h-87.05c-5.44,0-9.85-4.41-9.85-9.85      c0-1.06,0.17-2.09,0.48-3.05c1.29,3.95,4.99,6.8,9.37,6.8h87.05c4.37,0,8.08-2.85,9.36-6.8      C458.37,292.85,458.54,293.88,458.54,294.94z" opacity="0.2"/><path d="M458.54,275.24c0,5.44-4.41,9.85-9.84,9.85h-87.05c-5.44,0-9.85-4.41-9.85-9.85      c0-1.06,0.17-2.09,0.48-3.05c1.29,3.95,4.99,6.8,9.37,6.8h87.05c4.37,0,8.08-2.85,9.36-6.8      C458.37,273.15,458.54,274.18,458.54,275.24z" opacity="0.2"/><path d="M458.54,255.54c0,5.44-4.41,9.85-9.84,9.85h-87.05c-5.44,0-9.85-4.41-9.85-9.85      c0-1.06,0.17-2.09,0.48-3.05c1.29,3.95,4.99,6.8,9.37,6.8h87.05c4.37,0,8.08-2.85,9.36-6.8      C458.37,253.45,458.54,254.48,458.54,255.54z" opacity="0.2"/><polygon fill="#303C44" points="310.23,416.89 310.23,440.95 254.89,440.95 105.05,440.95 49.71,440.95 49.71,416.89       101.3,416.89 258.64,416.89     "/><path d="M462.29,188.66c0,31.55-25.57,57.13-57.12,57.13s-57.12-25.58-57.12-57.13      c0-31.54,25.57-57.12,57.12-57.12S462.29,157.12,462.29,188.66z" fill="#FFC035"/><rect fill="#303C44" height="24.06" width="260.52" x="49.71" y="69.32"/><path d="M310.23,93.38v21.73c0,30.6-10.55,58.73-28.22,80.96H77.92c-17.66-22.23-28.21-50.36-28.21-80.96V93.38      H310.23z" fill="#ECEFF0"/><path d="M282.01,196.07c-20.63,25.98-50.99,43.9-85.58,48.26v11.3h-32.92v-11.3      c-34.59-4.36-64.95-22.28-85.58-48.26H282.01z" fill="#007ECA"/><path d="M179.97,287.46c7.21,0,13.05,5.85,13.05,13.05c0,7.21-5.84,13.05-13.05,13.05      c-7.21,0-13.05-5.84-13.05-13.05C166.92,293.31,172.76,287.46,179.97,287.46z" fill="#007ECA"/><path d="M258.64,416.89H101.3c0-43.45,35.22-78.67,78.66-78.67h0.01C223.43,338.23,258.64,373.44,258.64,416.89z      " fill="#007ECA"/><path d="M196.43,265.94v-10.31h-32.92v10.31c-64.18,8.09-113.8,62.87-113.8,129.22v21.73h51.59      c0-43.45,35.22-78.67,78.66-78.67h0.01c43.46,0.01,78.67,35.22,78.67,78.67h51.59v-21.73      C310.23,328.81,260.6,274.03,196.43,265.94z M179.97,313.56c-7.21,0-13.05-5.84-13.05-13.05c0-7.2,5.84-13.05,13.05-13.05      c7.21,0,13.05,5.85,13.05,13.05C193.02,307.72,187.18,313.56,179.97,313.56z" fill="#ECEFF0"/><path d="M196.64,244.33c34.59-4.36,64.95-22.28,85.58-48.26c17.67-22.23,28.22-50.36,28.22-80.96V93.38h-16.67      v21.73c0,30.6-10.55,58.73-28.22,80.96c-20.63,25.98-50.99,43.9-85.58,48.26v11.3v10.31c64.17,8.09,113.8,62.87,113.8,129.22      v21.73h16.67v-21.73c0-66.35-49.63-121.13-113.8-129.22v-10.31V244.33z" opacity="0.2"/></g><g><path d="M77.92,196.07c-17.66-22.23-28.21-50.36-28.21-80.96V93.38V69.32h260.52v24.06v21.73      c0,30.6-10.55,58.73-28.22,80.96c-20.63,25.98-50.99,43.9-85.58,48.26v11.3v10.31c64.17,8.09,113.8,62.87,113.8,129.22v21.73      v24.06h-55.34" fill="none"/><path d="M105.05,440.95H49.71v-24.06v-21.73c0-66.35,49.62-121.13,113.8-129.22v-10.31v-11.3      c-34.59-4.36-64.95-22.28-85.58-48.26" fill="none"/><line fill="none" x1="49.71" x2="310.23" y1="93.38" y2="93.38"/><polyline fill="none" points="49.71,416.89 101.3,416.89 258.64,416.89 310.23,416.89     "/><path d="M448.7,422.99c5.43,0,9.84,4.41,9.84,9.85s-4.41,9.85-9.84,9.85h-87.05c-5.44,0-9.85-4.41-9.85-9.85      c0-2.72,1.1-5.18,2.88-6.96c1.79-1.79,4.25-2.89,6.97-2.89" fill="none"/><path d="M448.96,403.31c5.31,0.14,9.58,4.49,9.58,9.84c0,5.44-4.41,9.84-9.84,9.84h-87.05      c-5.44,0-9.85-4.4-9.85-9.84c0-2.72,1.1-5.18,2.88-6.97c1.74-1.73,4.1-2.81,6.72-2.87c0.08-0.01,0.17-0.01,0.25-0.01h87.05      C448.79,403.3,448.87,403.3,448.96,403.31z" fill="none"/><path d="M448.96,383.62c5.31,0.13,9.58,4.49,9.58,9.84s-4.27,9.71-9.58,9.85c-0.09,0-0.17,0-0.26,0h-87.05      c-0.08,0-0.17,0-0.25,0c-5.32-0.14-9.6-4.49-9.6-9.85c0-2.72,1.1-5.18,2.88-6.96c1.74-1.74,4.1-2.82,6.72-2.88      c0.08-0.01,0.17-0.01,0.25-0.01h87.05C448.79,383.61,448.87,383.61,448.96,383.62z" fill="none"/><path d="M448.7,363.93c5.43,0,9.84,4.4,9.84,9.84c0,5.35-4.27,9.71-9.58,9.85c-0.09,0-0.17,0-0.26,0h-87.05      c-0.08,0-0.17,0-0.25,0c-5.32-0.14-9.6-4.49-9.6-9.85c0-2.72,1.1-5.18,2.88-6.96c1.79-1.78,4.25-2.88,6.97-2.88" fill="none"/><path d="M448.7,344.24c5.43,0,9.84,4.4,9.84,9.84c0,5.44-4.41,9.85-9.84,9.85h-87.05c-5.44,0-9.85-4.41-9.85-9.85      c0-2.72,1.1-5.18,2.88-6.96c1.79-1.78,4.25-2.88,6.97-2.88" fill="none"/><path d="M448.7,324.55c5.43,0,9.84,4.4,9.84,9.84c0,5.44-4.41,9.85-9.84,9.85h-87.05c-5.44,0-9.85-4.41-9.85-9.85      c0-2.72,1.1-5.18,2.88-6.96c1.79-1.78,4.25-2.88,6.97-2.88" fill="none"/><path d="M448.7,304.86c5.43,0,9.84,4.4,9.84,9.84s-4.41,9.85-9.84,9.85h-87.05c-5.44,0-9.85-4.41-9.85-9.85      c0-2.72,1.1-5.18,2.88-6.96c1.79-1.78,4.25-2.88,6.97-2.88" fill="none"/><path d="M448.7,285.17c5.43,0,9.84,4.4,9.84,9.84s-4.41,9.85-9.84,9.85h-87.05c-5.44,0-9.85-4.41-9.85-9.85      c0-2.72,1.1-5.18,2.88-6.96c1.79-1.78,4.25-2.88,6.97-2.88" fill="none"/><path d="M448.7,265.48c5.43,0,9.84,4.4,9.84,9.84s-4.41,9.85-9.84,9.85h-87.05c-5.44,0-9.85-4.41-9.85-9.85      c0-2.72,1.1-5.18,2.88-6.96c1.79-1.78,4.25-2.88,6.97-2.88" fill="none"/><path d="M405.17,245.79h43.53c5.43,0,9.84,4.4,9.84,9.84s-4.41,9.85-9.84,9.85h-87.05c-5.44,0-9.85-4.41-9.85-9.85      c0-2.72,1.1-5.18,2.88-6.96c1.79-1.78,4.25-2.88,6.97-2.88H405.17z" fill="none"/><path d="M405.17,131.54c31.55,0,57.12,25.58,57.12,57.12c0,31.55-25.57,57.13-57.12,57.13s-57.12-25.58-57.12-57.13      C348.05,157.12,373.62,131.54,405.17,131.54z" fill="none"/><path d="M405.17,184.66c-3.071,0-5.57-2.499-5.57-5.57c0-3.075,2.499-5.577,5.57-5.577h9.57c2.209,0,4-1.791,4-4      s-1.791-4-4-4h-5.57v-6.753c0-2.209-1.791-4-4-4s-4,1.791-4,4v7.357c-5.536,1.712-9.57,6.879-9.57,12.973      c0,7.483,6.088,13.57,13.57,13.57c3.071,0,5.57,2.501,5.57,5.577c0,3.071-2.499,5.57-5.57,5.57h-9.57c-2.209,0-4,1.791-4,4      s1.791,4,4,4h5.57v6.753c0,2.209,1.791,4,4,4s4-1.791,4-4v-7.357c5.536-1.711,9.57-6.876,9.57-12.967      C418.74,190.75,412.652,184.66,405.17,184.66z" fill="#C98B0E"/><line fill="none" x1="254.89" x2="105.05" y1="440.95" y2="440.95"/><path d="M101.3,416.89c0-43.45,35.22-78.67,78.66-78.67c43.46,0,78.68,35.22,78.68,78.67" fill="none"/><polyline fill="none" points="282.02,196.07 282.01,196.07 77.93,196.07 77.92,196.07     "/><line fill="none" x1="196.43" x2="163.51" y1="255.63" y2="255.63"/><path d="M179.97,287.46c7.21,0,13.05,5.85,13.05,13.05c0,7.21-5.84,13.05-13.05,13.05      c-7.21,0-13.05-5.84-13.05-13.05C166.92,293.31,172.76,287.46,179.97,287.46z" fill="none"/></g></g></g><linearGradient gradientUnits="userSpaceOnUse" id="SVGID_1_" x1="405.17" x2="462.29" y1="188.665" y2="188.665"><stop offset="0" style="stop-color:#000000"/><stop offset="1" style="stop-color:#FFFFFF;stop-opacity:0"/></linearGradient><path d="M462.29,188.66c0,31.55-25.57,57.13-57.12,57.13V131.54   C436.72,131.54,462.29,157.12,462.29,188.66z" fill="url(#SVGID_1_)" opacity="0.2"/><linearGradient gradientUnits="userSpaceOnUse" id="SVGID_2_" x1="179.97" x2="310.23" y1="255.135" y2="255.135"><stop offset="0" style="stop-color:#000000"/><stop offset="1" style="stop-color:#FFFFFF;stop-opacity:0"/></linearGradient><path d="M196.43,265.94c64.17,8.09,113.8,62.87,113.8,129.22v21.73H179.97V93.38h130.26v21.73   c0,30.6-10.55,58.73-28.22,80.96c-20.63,25.98-50.99,43.9-85.58,48.26V265.94z" fill="url(#SVGID_2_)" opacity="0.2"/></g></svg>